<svg width="201" height="201" viewBox="0 0 201 201" fill="none" xmlns="http://www.w3.org/2000/svg">
<g filter="url(#filter0_f_3_380)">
<rect x="0.199951" y="0.200012" width="200" height="200" rx="15" fill="url(#paint0_linear_3_380)"/>
</g>
<g filter="url(#filter1_df_3_380)">
<rect x="14.2" y="106.2" width="80" height="80" rx="4" fill="white" fill-opacity="0.13" shape-rendering="crispEdges"/>
</g>
<g filter="url(#filter2_i_3_380)">
<path fill-rule="evenodd" clip-rule="evenodd" d="M45.2636 130.312C45.9716 130.238 46.6898 130.2 47.4166 130.2C57.138 130.2 65.3323 136.979 67.8421 146.228C68.043 146.215 68.2451 146.206 68.4483 146.202C68.3657 146.201 68.2829 146.2 68.2 146.2L68.133 146.2L68.1328 146.2H71.2H71.3204V146.199C75.1309 146.135 78.2 143.026 78.2 139.2C78.2 135.334 75.066 132.2 71.2 132.2C69.902 132.2 68.6864 132.553 67.6444 133.169C67.6413 132.051 67.4716 130.973 67.1588 129.958C65.6004 125.443 61.3134 122.2 56.2691 122.2C51.0938 122.2 46.7157 125.613 45.2636 130.312ZM76.5534 148.812C79.9723 151.352 82.2001 155.506 82.2001 160.2C82.2001 167.932 76.1553 174.2 68.6987 174.2C68.5317 174.2 68.3655 174.197 68.2001 174.191V174.2H47.7343V174.198C47.6286 174.199 47.5227 174.2 47.4166 174.2C35.6991 174.2 26.2001 164.35 26.2001 152.2C26.2001 142.389 32.3939 134.077 40.9483 131.241C42.1339 123.848 48.5419 118.2 56.2691 118.2C62.8988 118.2 68.5574 122.358 70.7798 128.208C70.9193 128.203 71.0593 128.2 71.2 128.2C77.2751 128.2 82.2 133.125 82.2 139.2C82.2 143.332 79.922 146.931 76.5534 148.812ZM68.2001 170.2H47.7343H47.5041V170.2L47.4166 170.2C38.0437 170.2 30.2001 162.279 30.2001 152.2C30.2001 142.121 38.0437 134.2 47.4166 134.2C55.3678 134.2 62.2184 139.9 64.1138 147.782L64.1198 147.78C64.3875 148.873 64.5582 150.007 64.6217 151.171C65.8679 150.546 67.2545 150.2 68.6987 150.2C73.8107 150.2 78.2001 154.539 78.2001 160.2C78.2001 165.821 73.872 170.139 68.806 170.199V170.2H68.2001Z" fill="white"/>
</g>
<g filter="url(#filter3_df_3_380)">
<rect x="108.2" y="12.1999" width="80" height="80" rx="4" fill="white" fill-opacity="0.13" shape-rendering="crispEdges"/>
</g>
<g filter="url(#filter4_df_3_380)">
<rect x="18.7444" y="8.1218" width="80" height="80" rx="4" transform="rotate(6.18743 18.7444 8.1218)" fill="white" fill-opacity="0.04" shape-rendering="crispEdges"/>
</g>
<g filter="url(#filter5_df_3_380)">
<rect x="108.2" y="106.2" width="80" height="80" rx="4" fill="white" fill-opacity="0.13" shape-rendering="crispEdges"/>
</g>
<g filter="url(#filter6_i_3_380)">
<path fill-rule="evenodd" clip-rule="evenodd" d="M144.189 146.202L133.962 152.184L125.855 148.463L124.191 152.123L129.724 154.663L126.681 156.443L128.661 159.918L131.704 158.138L131.108 164.261L135.07 164.631L135.942 155.66L146.174 149.675V161.706L138.934 166.96L141.283 170.197L146.174 166.648V170.2H150.174V166.648L155.064 170.197L157.414 166.96L150.174 161.705V149.703L160.428 155.701L161.301 164.673L165.262 164.303L164.667 158.18L167.71 159.96L169.691 156.484L166.648 154.705L172.179 152.166L170.515 148.505L162.409 152.226L152.111 146.202L162.378 140.198L170.537 143.943L172.201 140.282L166.616 137.719L169.695 135.918L167.714 132.443L164.694 134.209L165.284 128.145L161.322 127.775L160.456 136.688L150.174 142.702V130.735L157.46 125.446L155.111 122.209L150.174 125.793V122.2H146.174V125.725L141.33 122.209L138.98 125.446L146.174 130.667V142.73L135.973 136.764L135.096 127.733L131.134 128.103L131.735 134.285L128.657 132.484L126.676 135.96L129.696 137.726L124.217 140.241L125.881 143.901L133.934 140.205L144.189 146.202Z" fill="white"/>
</g>
<g filter="url(#filter7_i_3_380)">
<path fill-rule="evenodd" clip-rule="evenodd" d="M120.2 46.2001C120.2 55.723 126.035 63.8327 134.2 66.8947V62.5412C128.341 59.707 124.2 53.5232 124.2 46.2001C124.2 36.121 132.044 28.2001 141.417 28.2001C149.368 28.2001 156.218 33.9002 158.114 41.7824L158.12 41.7799C158.387 42.8735 158.558 44.0074 158.622 45.171C159.868 44.5464 161.254 44.2001 162.699 44.2001C167.811 44.2001 172.2 48.5393 172.2 54.2C172.2 59.8212 167.872 64.1392 162.806 64.1994V64.2001H162.2V68.1906C162.365 68.1969 162.532 68.2 162.699 68.2C170.155 68.2 176.2 61.932 176.2 54.2C176.2 46.4681 170.155 40.2001 162.699 40.2001C162.411 40.2001 162.125 40.2094 161.842 40.2278C159.332 30.9796 151.138 24.2001 141.417 24.2001C129.699 24.2001 120.2 34.0498 120.2 46.2001ZM150.536 53.0907L142.536 65.0907L140.463 68.2001H144.2H150.288L143.912 77.0291L147.155 79.3711L155.821 67.3711L158.111 64.2001H154.2H147.937L153.864 55.3095L150.536 53.0907ZM156.922 74.049C156.507 75.0217 156.202 76.0616 156.202 77.0183C156.203 78.7756 157.546 80.2001 159.203 80.2001C160.86 80.2001 162.203 78.7756 162.202 77.0183C162.202 76.1238 161.865 75.0643 161.418 74.0505C160.528 72.035 159.2 70.2001 159.2 70.2001C159.2 70.2001 157.809 71.9713 156.922 74.049ZM134.202 77.0183C134.202 76.0616 134.507 75.0217 134.922 74.049C135.809 71.9713 137.2 70.2001 137.2 70.2001C137.2 70.2001 138.528 72.035 139.418 74.0505C139.865 75.0643 140.202 76.1238 140.202 77.0183C140.203 78.7756 138.86 80.2001 137.203 80.2001C135.546 80.2001 134.203 78.7756 134.202 77.0183Z" fill="white"/>
</g>
<g filter="url(#filter8_i_3_380)">
<path fill-rule="evenodd" clip-rule="evenodd" d="M52.2001 30.2001V24.2001H56.2001V30.2001H52.2001ZM63.4681 32.1477L66.4681 26.9515L69.9322 28.9515L66.9322 34.1477L63.4681 32.1477ZM54.2001 66.2001C61.9321 66.2001 68.2001 59.9321 68.2001 52.2001C68.2001 44.4681 61.9321 38.2001 54.2001 38.2001C46.4681 38.2001 40.2001 44.4681 40.2001 52.2001C40.2001 59.9321 46.4681 66.2001 54.2001 66.2001ZM54.2001 70.2001C64.1412 70.2001 72.2001 62.1412 72.2001 52.2001C72.2001 42.2589 64.1412 34.2001 54.2001 34.2001C44.2589 34.2001 36.2001 42.2589 36.2001 52.2001C36.2001 62.1412 44.2589 70.2001 54.2001 70.2001ZM76.2001 50.2001H82.2001V54.2001H76.2001V50.2001ZM77.4487 36.468L72.2526 39.468L74.2526 42.9321L79.4487 39.9321L77.4487 36.468ZM38.468 28.9515L41.468 34.1477L44.9321 32.1477L41.9321 26.9515L38.468 28.9515ZM34.1476 42.9321L28.9514 39.9321L30.9514 36.468L36.1476 39.468L34.1476 42.9321ZM52.2001 74.2001V80.2001H56.2001V74.2001H52.2001ZM32.2001 50.2001H26.2001V54.2001H32.2001V50.2001ZM28.9513 64.468L34.1475 61.468L36.1475 64.9321L30.9513 67.9321L28.9513 64.468ZM41.4681 70.2528L38.4681 75.449L41.9322 77.449L44.9322 72.2528L41.4681 70.2528ZM66.468 77.449L63.468 72.2528L66.9321 70.2528L69.9321 75.449L66.468 77.449ZM72.2527 64.9321L77.4488 67.9321L79.4488 64.468L74.2527 61.468L72.2527 64.9321Z" fill="white"/>
</g>
<defs>
<filter id="filter0_f_3_380" x="-4.88311e-05" y="1.22041e-05" width="200.4" height="200.4" filterUnits="userSpaceOnUse" color-interpolation-filters="sRGB">
<feFlood flood-opacity="0" result="BackgroundImageFix"/>
<feBlend mode="normal" in="SourceGraphic" in2="BackgroundImageFix" result="shape"/>
<feGaussianBlur stdDeviation="0.1" result="effect1_foregroundBlur_3_380"/>
</filter>
<filter id="filter1_df_3_380" x="10.2" y="105.8" width="88" height="88.4" filterUnits="userSpaceOnUse" color-interpolation-filters="sRGB">
<feFlood flood-opacity="0" result="BackgroundImageFix"/>
<feColorMatrix in="SourceAlpha" type="matrix" values="0 0 0 0 0 0 0 0 0 0 0 0 0 0 0 0 0 0 127 0" result="hardAlpha"/>
<feOffset dy="4"/>
<feGaussianBlur stdDeviation="2"/>
<feComposite in2="hardAlpha" operator="out"/>
<feColorMatrix type="matrix" values="0 0 0 0 0 0 0 0 0 0 0 0 0 0 0 0 0 0 0.25 0"/>
<feBlend mode="normal" in2="BackgroundImageFix" result="effect1_dropShadow_3_380"/>
<feBlend mode="normal" in="SourceGraphic" in2="effect1_dropShadow_3_380" result="shape"/>
<feGaussianBlur stdDeviation="0.2" result="effect2_foregroundBlur_3_380"/>
</filter>
<filter id="filter2_i_3_380" x="22.2001" y="114.2" width="64" height="68" filterUnits="userSpaceOnUse" color-interpolation-filters="sRGB">
<feFlood flood-opacity="0" result="BackgroundImageFix"/>
<feBlend mode="normal" in="SourceGraphic" in2="BackgroundImageFix" result="shape"/>
<feColorMatrix in="SourceAlpha" type="matrix" values="0 0 0 0 0 0 0 0 0 0 0 0 0 0 0 0 0 0 127 0" result="hardAlpha"/>
<feOffset dy="4"/>
<feGaussianBlur stdDeviation="2"/>
<feComposite in2="hardAlpha" operator="arithmetic" k2="-1" k3="1"/>
<feColorMatrix type="matrix" values="0 0 0 0 0.138683 0 0 0 0 0.511187 0 0 0 0 0.576923 0 0 0 1 0"/>
<feBlend mode="normal" in2="shape" result="effect1_innerShadow_3_380"/>
</filter>
<filter id="filter3_df_3_380" x="104.2" y="11.7999" width="88" height="88.4" filterUnits="userSpaceOnUse" color-interpolation-filters="sRGB">
<feFlood flood-opacity="0" result="BackgroundImageFix"/>
<feColorMatrix in="SourceAlpha" type="matrix" values="0 0 0 0 0 0 0 0 0 0 0 0 0 0 0 0 0 0 127 0" result="hardAlpha"/>
<feOffset dy="4"/>
<feGaussianBlur stdDeviation="2"/>
<feComposite in2="hardAlpha" operator="out"/>
<feColorMatrix type="matrix" values="0 0 0 0 0 0 0 0 0 0 0 0 0 0 0 0 0 0 0.25 0"/>
<feBlend mode="normal" in2="BackgroundImageFix" result="effect1_dropShadow_3_380"/>
<feBlend mode="normal" in="SourceGraphic" in2="effect1_dropShadow_3_380" result="shape"/>
<feGaussianBlur stdDeviation="0.2" result="effect2_foregroundBlur_3_380"/>
</filter>
<filter id="filter4_df_3_380" x="6.52942" y="8.12927" width="95.3414" height="95.7415" filterUnits="userSpaceOnUse" color-interpolation-filters="sRGB">
<feFlood flood-opacity="0" result="BackgroundImageFix"/>
<feColorMatrix in="SourceAlpha" type="matrix" values="0 0 0 0 0 0 0 0 0 0 0 0 0 0 0 0 0 0 127 0" result="hardAlpha"/>
<feOffset dy="4"/>
<feGaussianBlur stdDeviation="2"/>
<feComposite in2="hardAlpha" operator="out"/>
<feColorMatrix type="matrix" values="0 0 0 0 0 0 0 0 0 0 0 0 0 0 0 0 0 0 0.25 0"/>
<feBlend mode="normal" in2="BackgroundImageFix" result="effect1_dropShadow_3_380"/>
<feBlend mode="normal" in="SourceGraphic" in2="effect1_dropShadow_3_380" result="shape"/>
<feGaussianBlur stdDeviation="0.2" result="effect2_foregroundBlur_3_380"/>
</filter>
<filter id="filter5_df_3_380" x="104.2" y="105.8" width="88" height="88.4" filterUnits="userSpaceOnUse" color-interpolation-filters="sRGB">
<feFlood flood-opacity="0" result="BackgroundImageFix"/>
<feColorMatrix in="SourceAlpha" type="matrix" values="0 0 0 0 0 0 0 0 0 0 0 0 0 0 0 0 0 0 127 0" result="hardAlpha"/>
<feOffset dy="4"/>
<feGaussianBlur stdDeviation="2"/>
<feComposite in2="hardAlpha" operator="out"/>
<feColorMatrix type="matrix" values="0 0 0 0 0 0 0 0 0 0 0 0 0 0 0 0 0 0 0.25 0"/>
<feBlend mode="normal" in2="BackgroundImageFix" result="effect1_dropShadow_3_380"/>
<feBlend mode="normal" in="SourceGraphic" in2="effect1_dropShadow_3_380" result="shape"/>
<feGaussianBlur stdDeviation="0.2" result="effect2_foregroundBlur_3_380"/>
</filter>
<filter id="filter6_i_3_380" x="116.2" y="114.2" width="64" height="68" filterUnits="userSpaceOnUse" color-interpolation-filters="sRGB">
<feFlood flood-opacity="0" result="BackgroundImageFix"/>
<feBlend mode="normal" in="SourceGraphic" in2="BackgroundImageFix" result="shape"/>
<feColorMatrix in="SourceAlpha" type="matrix" values="0 0 0 0 0 0 0 0 0 0 0 0 0 0 0 0 0 0 127 0" result="hardAlpha"/>
<feOffset dy="4"/>
<feGaussianBlur stdDeviation="2"/>
<feComposite in2="hardAlpha" operator="arithmetic" k2="-1" k3="1"/>
<feColorMatrix type="matrix" values="0 0 0 0 0.485577 0 0 0 0 0.485577 0 0 0 0 0.485577 0 0 0 1 0"/>
<feBlend mode="normal" in2="shape" result="effect1_innerShadow_3_380"/>
</filter>
<filter id="filter7_i_3_380" x="116.2" y="20.2001" width="64" height="68" filterUnits="userSpaceOnUse" color-interpolation-filters="sRGB">
<feFlood flood-opacity="0" result="BackgroundImageFix"/>
<feBlend mode="normal" in="SourceGraphic" in2="BackgroundImageFix" result="shape"/>
<feColorMatrix in="SourceAlpha" type="matrix" values="0 0 0 0 0 0 0 0 0 0 0 0 0 0 0 0 0 0 127 0" result="hardAlpha"/>
<feOffset dy="4"/>
<feGaussianBlur stdDeviation="2"/>
<feComposite in2="hardAlpha" operator="arithmetic" k2="-1" k3="1"/>
<feColorMatrix type="matrix" values="0 0 0 0 0 0 0 0 0 0.448718 0 0 0 0 0.961538 0 0 0 1 0"/>
<feBlend mode="normal" in2="shape" result="effect1_innerShadow_3_380"/>
</filter>
<filter id="filter8_i_3_380" x="22.2001" y="20.2001" width="65" height="68" filterUnits="userSpaceOnUse" color-interpolation-filters="sRGB">
<feFlood flood-opacity="0" result="BackgroundImageFix"/>
<feBlend mode="normal" in="SourceGraphic" in2="BackgroundImageFix" result="shape"/>
<feColorMatrix in="SourceAlpha" type="matrix" values="0 0 0 0 0 0 0 0 0 0 0 0 0 0 0 0 0 0 127 0" result="hardAlpha"/>
<feOffset dx="1" dy="4"/>
<feGaussianBlur stdDeviation="2"/>
<feComposite in2="hardAlpha" operator="arithmetic" k2="-1" k3="1"/>
<feColorMatrix type="matrix" values="0 0 0 0 0.754808 0 0 0 0 0.465465 0 0 0 0 0 0 0 0 1 0"/>
<feBlend mode="normal" in2="shape" result="effect1_innerShadow_3_380"/>
</filter>
<linearGradient id="paint0_linear_3_380" x1="200.2" y1="4.20002" x2="26.1999" y2="188.2" gradientUnits="userSpaceOnUse">
<stop stop-color="#0084C7"/>
<stop offset="0.317308" stop-color="#214B82"/>
<stop offset="0.663462" stop-color="#2E1365"/>
<stop offset="1" stop-color="#420092"/>
</linearGradient>
</defs>
</svg>
